<svg width="20" height="20" viewBox="0 0 20 20" fill="none" xmlns="http://www.w3.org/2000/svg">
<g clip-path="url(#clip0_3_94)">
<g clip-path="url(#clip1_3_94)">
<path d="M4.51369 19.8677C3.33744 19.8677 2.23144 19.4095 1.39986 18.5777C0.568056 17.7461 0.109894 16.6404 0.109894 15.4639C0.109894 14.2874 0.567836 13.1817 1.39964 12.3501L5.88247 7.86702C7.59964 6.15007 10.3934 6.15007 12.1101 7.86702C12.5389 8.29577 12.5389 8.9908 12.1101 9.41933C11.6818 9.84785 10.9863 9.84785 10.558 9.41933C9.69726 8.55855 8.29621 8.55833 7.43477 9.41933L2.95216 13.9022C2.09116 14.7634 2.09116 16.1642 2.95216 17.0254C3.36927 17.4425 3.92381 17.6722 4.51369 17.6722C5.10357 17.6722 5.65811 17.4425 6.07522 17.0254L8.29621 14.8049C8.72518 14.3761 9.41999 14.3763 9.84852 14.8049C10.277 15.2334 10.2773 15.9284 9.84852 16.357L7.62752 18.5777C6.79572 19.4095 5.68994 19.8677 4.51369 19.8677Z" fill="white"/>
<path d="M10.9813 13.4001C9.80505 13.4001 8.69905 12.9419 7.86724 12.1101C7.4385 11.6816 7.4385 10.9866 7.86724 10.5578C8.29599 10.1295 8.99102 10.1295 9.41955 10.558C9.83666 10.9751 10.3914 11.2048 10.9811 11.2048C11.5707 11.2048 12.1255 10.9751 12.5424 10.558L17.0254 6.07521C17.4425 5.6581 17.6722 5.10357 17.6722 4.51369C17.6722 3.9238 17.4425 3.36927 17.0254 2.95216C16.1644 2.09116 14.7632 2.09116 13.9022 2.95216L11.6814 5.17294C11.2531 5.60146 10.5578 5.60146 10.1291 5.17294C9.70033 4.74419 9.70033 4.04916 10.1291 3.62063L12.3503 1.39963C14.067 -0.317319 16.861 -0.317319 18.5777 1.39963C19.4095 2.23144 19.8677 3.33722 19.8677 4.51369C19.8677 5.69015 19.4095 6.79593 18.5777 7.62774L14.0949 12.1103C13.2633 12.9419 12.1575 13.4001 10.9813 13.4001Z" fill="white"/>
</g>
</g>
<defs>
<clipPath id="clip0_3_94">
<rect width="20" height="20" fill="white"/>
</clipPath>
<clipPath id="clip1_3_94">
<rect width="20" height="20" fill="white"/>
</clipPath>
</defs>
</svg>
