<svg width="20" height="20" viewBox="0 0 20 20" fill="none" xmlns="http://www.w3.org/2000/svg">
<g clip-path="url(#clip0_3_60)">
<path fill-rule="evenodd" clip-rule="evenodd" d="M13.0956 18.0934C15.8556 18.0934 18.0934 15.8557 18.0934 13.0949C18.0934 10.3341 15.8556 8.09631 13.0956 8.09631C10.3355 8.09631 8.09773 10.3341 8.09773 13.0949C8.09773 15.8557 10.3355 18.0934 13.0956 18.0934ZM13.0956 19.9758C16.8954 19.9758 19.9758 16.8951 19.9758 13.0949C19.9758 9.29464 16.8954 6.21396 13.0956 6.21396C9.29574 6.21396 6.21537 9.29464 6.21537 13.0949C6.21537 16.8951 9.29574 19.9758 13.0956 19.9758Z" fill="white"/>
<rect width="8.30756" height="1.26191" rx="0.630954" transform="matrix(0.707071 -0.707143 0.707071 0.707143 9.70146 15.575)" fill="white"/>
<rect width="8.30756" height="1.26191" rx="0.630954" transform="matrix(-0.70707 -0.707143 0.70707 -0.707143 15.5755 16.4674)" fill="white"/>
<path fill-rule="evenodd" clip-rule="evenodd" d="M8.63701 6.56165C7.61778 6.64317 6.62138 7.07294 5.84333 7.85098L1.30556 12.3894C0.463556 13.2313 0 14.3508 0 15.5418C0 16.7328 0.463778 17.8522 1.30578 18.6941C2.14756 19.5362 3.26711 20 4.45778 20C5.62509 20 6.72384 19.5542 7.55991 18.7432C7.0259 18.2197 6.56581 17.621 6.19676 16.9643L6.03844 17.1226C5.61622 17.5449 5.05489 17.7773 4.45778 17.7773C3.86067 17.7773 3.29933 17.5449 2.87711 17.1226C2.00556 16.2507 2.00556 14.8326 2.87711 13.9607L5.35092 11.4865C5.77192 9.44833 6.97711 7.69687 8.63701 6.56165Z" fill="white"/>
<path fill-rule="evenodd" clip-rule="evenodd" d="M11.2342 5.40611C11.208 5.41243 11.1818 5.41889 11.1557 5.42547C10.8011 5.49939 10.4173 5.39876 10.142 5.12358C9.708 4.68954 9.708 3.98591 10.142 3.55209L12.3904 1.30363C14.1282 -0.434545 16.9564 -0.434545 18.6942 1.30363C19.5362 2.14572 20 3.26517 20 4.45618C20 5.62378 19.5543 6.7226 18.7434 7.55875C18.2199 7.02462 17.6213 6.56445 16.9646 6.19533L17.1229 6.03701C17.5451 5.61474 17.7776 5.05335 17.7776 4.45618C17.7776 3.85901 17.5451 3.29762 17.1229 2.87535C16.2513 2.00371 14.8329 2.00371 13.9613 2.87535L11.7133 5.12358C11.5752 5.26178 11.4097 5.35596 11.2342 5.40611Z" fill="white"/>
</g>
<defs>
<clipPath id="clip0_3_60">
<rect width="20" height="20" fill="white"/>
</clipPath>
</defs>
</svg>
